<svg xmlns="http://www.w3.org/2000/svg" xmlns:xlink="http://www.w3.org/1999/xlink" width="163" height="60" viewBox="0 0 163 60">
    <defs>
        <path id="a" d="M0 .103h60.94v56.176H0z"/>
        <path id="c" d="M.063.243H7.72v9.561H.063z"/>
    </defs>
    <g fill="none" fill-rule="evenodd">
        <g transform="translate(0 .352)">
            <mask id="b" fill="#fff">
                <use xlink:href="#a"/>
            </mask>
            <path fill="#2A2424" d="M20.343 8.673L39.69 27.937c-6.703 8.085-13.402 11.944-19.93 11.472-10.367-.751-17.124-12.3-17.192-12.418L0 28.38c.305.53 7.577 12.998 19.525 13.871.44.032.878.048 1.317.048 6.493 0 12.98-3.523 19.332-10.494v24.474h2.935V28.373L60.941 8.62 58.73 6.737l-17.147 19L22.448 6.679l-2.105 1.994zm15.2-.274c0-3.002 2.515-5.447 5.608-5.447 3.096 0 5.612 2.445 5.612 5.447 0 3.007-2.516 5.449-5.612 5.449-3.093 0-5.608-2.442-5.608-5.449zm-2.94 0c0 4.58 3.835 8.301 8.548 8.301 4.715 0 8.552-3.72 8.552-8.301 0-4.572-3.837-8.296-8.552-8.296-4.713 0-8.549 3.724-8.549 8.296z" mask="url(#b)"/>
        </g>
        <path fill="#2A2424" d="M54.162 54.058l2.514-1.452c.4.708.818 1.09 1.796 1.09 1.268 0 1.647-.726 1.647-1.503v-8.601h2.897v8.6c0 2.787-1.956 4.328-4.563 4.328-2.008 0-3.458-.852-4.291-2.462M64.498 51.74c0-2.699 2.136-4.781 4.799-4.781 2.661 0 4.796 2.082 4.796 4.782 0 2.695-2.135 4.779-4.796 4.779-2.663 0-4.8-2.084-4.8-4.78m6.879 0c0-1.286-.904-2.137-2.079-2.137-1.179 0-2.082.85-2.082 2.138 0 1.284.903 2.138 2.082 2.138 1.175 0 2.079-.854 2.079-2.138M83.906 47.213l-3.096 8.78c-1.014 2.88-2.627 4.024-5.16 3.894v-2.532c1.263 0 1.865-.4 2.263-1.506l-3.605-8.636h2.991l2.01 5.542 1.702-5.542h2.895zM88.464 43.593h3.17l2.804 9.323 2.81-9.323h3.168l-4.13 12.676h-3.695zM104.956 54.094c.744 0 1.376-.29 1.74-.688l2.172 1.25c-.887 1.232-2.227 1.864-3.947 1.864-3.096 0-5.017-2.086-5.017-4.78 0-2.699 1.957-4.781 4.82-4.781 2.642 0 4.594 2.047 4.594 4.782 0 .379-.034.741-.104 1.084h-6.429c.342.944 1.178 1.269 2.171 1.269zm1.666-3.296c-.29-1.049-1.102-1.432-1.919-1.432-1.032 0-1.721.506-1.974 1.432h3.893zM119.568 50.705v5.564h-2.717v-5.162c0-1.126-.705-1.648-1.573-1.648-.997 0-1.687.581-1.687 1.864v4.946h-2.716v-9.055h2.716v.849c.488-.67 1.395-1.104 2.588-1.104 1.83 0 3.389 1.305 3.389 3.746M124.885 49.82v3.206c0 .776.67.853 1.868.776v2.467c-3.55.36-4.583-.712-4.583-3.243V49.82h-1.448v-2.608h1.448v-1.72l2.715-.815v2.535h1.868v2.608h-1.868zM137.051 47.213v9.056h-2.716v-.854c-.49.671-1.396 1.105-2.587 1.105-1.831 0-3.386-1.305-3.386-3.749v-5.558h2.716v5.16c0 1.124.705 1.647 1.574 1.647.996 0 1.683-.578 1.683-1.862v-4.945h2.716zM144.49 47.033v3.075c-1.12-.18-2.714.275-2.714 2.068v4.093h-2.714v-9.056h2.714v1.613c.363-1.213 1.574-1.793 2.714-1.793M150.12 54.094c.74 0 1.378-.29 1.74-.688l2.172 1.25c-.886 1.232-2.226 1.864-3.949 1.864-3.094 0-5.012-2.086-5.012-4.78 0-2.699 1.953-4.781 4.815-4.781 2.642 0 4.597 2.047 4.597 4.782 0 .379-.035.741-.106 1.084h-6.428c.344.944 1.177 1.269 2.172 1.269zm1.665-3.296c-.287-1.049-1.102-1.432-1.92-1.432-1.03 0-1.72.506-1.968 1.432h3.888z"/>
        <g transform="translate(155 46.715)">
            <mask id="d" fill="#fff">
                <use xlink:href="#c"/>
            </mask>
            <path fill="#2A2424" d="M7.72 6.835c0 2.082-1.811 2.97-3.765 2.97-1.81 0-3.19-.69-3.892-2.156L2.415 6.31c.238.687.742 1.068 1.54 1.068.652 0 .977-.199.977-.561 0-.995-4.455-.473-4.455-3.604 0-1.973 1.669-2.97 3.548-2.97 1.468 0 2.771.654 3.535 1.938L5.242 3.432c-.255-.472-.618-.795-1.217-.795-.47 0-.759.177-.759.506 0 1.03 4.454.343 4.454 3.692" mask="url(#d)"/>
        </g>
    </g>
</svg>
